<?xml version="1.0" encoding="UTF-8"?>
<svg id="Layer_2" data-name="Layer 2" xmlns="http://www.w3.org/2000/svg" viewBox="0 0 58.153372 59.313141">
  <defs>
    <style>
      .cls-1 {
        fill: #fff;
        stroke-width: 0px;
      }
    </style>
  </defs>
  <g id="Layer_1-2" data-name="Layer 1">
    <g>
      <polygon class="cls-1" points="0 15 13.805328 15 32 0 32 59.313141 14 44 0 44.333893 0 15"/>
      <path class="cls-1" d="M42.090412,47.014157c7.16958-10.16872,6.784078-23.778872,0-34.028315-.893264-1.349551-2.650822-1.926562-4.104569-1.076255-1.340687.784177-1.97449,2.747508-1.076255,4.104569,2.355199,3.558255,3.78113,7.000182,4.335336,11.235318.785948,6.006067-.887051,11.845613-4.335336,16.736367-.934137,1.3249-.237931,3.335904,1.076255,4.104569,1.500459.877616,3.168268.251716,4.104569-1.076255h0Z"/>
      <path class="cls-1" d="M50.505135,53.990816c4.49992-6.363539,7.161787-13.924191,7.590563-21.71101.402482-7.309294-1.326163-14.579656-4.417074-21.173734-.918726-1.959988-1.977625-3.852937-3.17349-5.657257-.894087-1.348998-2.650213-1.926918-4.104569-1.076255-1.340006.783779-1.975332,2.748042-1.076255,4.104569.934722,1.410308,1.785812,2.874319,2.551731,4.38302.275227.542139.539527,1.089899.792752,1.642658.116313.253896.229757.509074.341895.764837.23707.54071.086222.201264.037306.083445.076205.183546.150635.367884.224105.552541.556497,1.398679,1.04245,2.825507,1.452599,4.273905,2.004101,7.077265,1.892844,14.548343-.562561,21.601381-1.142007,3.280363-2.834174,6.35013-4.837826,9.183584-.935983,1.323615-.236571,3.3367,1.076255,4.104569,1.502028.878534,3.166417.250429,4.104569-1.076255h0Z"/>
    </g>
  </g>
</svg>